<?xml version="1.0" encoding="UTF-8"?>
<svg xmlns="http://www.w3.org/2000/svg" xmlns:xlink="http://www.w3.org/1999/xlink" width="200px" height="200px" viewBox="0 0 200 200" version="1.1">
<g id="surface1">
<path style=" stroke:none;fill-rule:nonzero;fill:rgb(0%,0%,0%);fill-opacity:1;" d="M 134.183594 149.417969 L 111.707031 171.140625 C 107.824219 175.035156 102.449219 176.660156 96.515625 176.660156 C 90.582031 176.660156 85.207031 175.035156 81.316406 171.140625 L 45.214844 134.785156 C 41.324219 130.890625 39.367188 125.199219 39.367188 119.257812 C 39.367188 113.316406 41.324219 107.949219 45.214844 104.058594 L 81.207031 67.558594 C 85.101562 63.667969 90.582031 62.183594 96.515625 62.183594 C 102.449219 62.183594 107.824219 63.808594 111.707031 67.699219 L 134.183594 89.417969 C 138.464844 93.707031 145.558594 93.558594 150.015625 89.101562 C 154.476562 84.632812 154.625 77.542969 150.339844 73.257812 L 128.601562 51.292969 C 122.988281 45.742188 115.925781 41.882812 108.226562 40.148438 L 128.785156 19.292969 C 133.082031 15.007812 132.933594 7.910156 128.476562 3.449219 C 124.015625 -1.007812 116.917969 -1.148438 112.625 3.132812 L 28.457031 87.308594 C 20.285156 95.492188 16.007812 106.785156 16.007812 119.265625 C 16.007812 131.75 20.285156 143.390625 28.457031 151.558594 L 64.683594 187.898438 C 72.859375 196.058594 84.160156 200 96.632812 200 C 109.109375 200 120.410156 195.734375 128.589844 187.550781 L 150.332031 165.574219 C 154.617188 161.292969 154.464844 154.199219 150.007812 149.742188 C 145.550781 145.285156 138.457031 145.132812 134.183594 149.417969 Z M 173.425781 108.417969 L 88.882812 108.417969 C 83.035156 108.417969 78.300781 113.449219 78.300781 119.632812 C 78.300781 125.816406 83.035156 130.851562 88.882812 130.851562 L 173.425781 130.851562 C 179.265625 130.851562 184.007812 125.816406 184.007812 119.632812 C 184.007812 113.449219 179.265625 108.417969 173.425781 108.417969 Z M 173.425781 108.417969 "/>
</g>
</svg>
